<svg xmlns="http://www.w3.org/2000/svg" width="420" height="65" baseProfile="full">
  <rect width="100%" height="100%" fill="#fff"/>
  <g font-family="Lucida Console, Monaco, monospace" font-size="11" text-anchor="middle">
    <text x="25" y="10" transform="translate(10 10)">7</text>
    <text x="75" y="10" transform="translate(10 10)">6</text>
    <text x="125" y="10" transform="translate(10 10)">5</text>
    <text x="175" y="10" transform="translate(10 10)">4</text>
    <text x="225" y="10" transform="translate(10 10)">3</text>
    <text x="275" y="10" transform="translate(10 10)">2</text>
    <text x="325" y="10" transform="translate(10 10)">1</text>
    <text x="375" y="10" transform="translate(10 10)">0</text>
    <text x="25" y="37" transform="translate(10 10)">0</text>
    <text x="125" y="37" transform="translate(10 10)">Not Used</text>
    <text x="275" y="37" transform="translate(10 10)">Bit Number</text>
    <text x="375" y="37" transform="translate(10 10)">Set</text>
  </g>
  <path fill="none" stroke="#000" d="M10 30h400v25H10zm50 0v25m150 0V30m150 0v25"/>
</svg>
