<svg xmlns="http://www.w3.org/2000/svg" width="420" height="115" baseProfile="full">
  <rect width="100%" height="100%" fill="#fff"/>
  <g font-family="Lucida Console, Monaco, monospace" font-size="11" text-anchor="middle">
    <text x="25" y="10" transform="translate(10 10)">7</text>
    <text x="75" y="10" transform="translate(10 10)">6</text>
    <text x="125" y="10" transform="translate(10 10)">5</text>
    <text x="175" y="10" transform="translate(10 10)">4</text>
    <text x="225" y="10" transform="translate(10 10)">3</text>
    <text x="275" y="10" transform="translate(10 10)">2</text>
    <text x="325" y="10" transform="translate(10 10)">1</text>
    <text x="375" y="10" transform="translate(10 10)">0</text>
    <text x="50" y="42" transform="translate(10 10)">Page 3</text>
    <text x="50" y="62" transform="translate(10 10)">PSLOT#</text>
    <text x="50" y="82" transform="translate(10 10)">C000 - FFFF</text>
    <text x="150" y="42" transform="translate(10 10)">Page 2</text>
    <text x="150" y="62" transform="translate(10 10)">PSLOT#</text>
    <text x="150" y="82" transform="translate(10 10)">8000 - BFFF</text>
    <text x="250" y="42" transform="translate(10 10)">Page 1</text>
    <text x="250" y="62" transform="translate(10 10)">PSLOT#</text>
    <text x="250" y="82" transform="translate(10 10)">4000 - 7FFF</text>
    <text x="350" y="42" transform="translate(10 10)">Page 0</text>
    <text x="350" y="62" transform="translate(10 10)">PSLOT#</text>
    <text x="350" y="82" transform="translate(10 10)">0000 - 3FFF</text>
  </g>
  <path fill="none" stroke="#000" d="M10 30h400v75H10zm100 0v75m100 0V30m100 0v75"/>
</svg>
