<svg xmlns="http://www.w3.org/2000/svg" width="190" height="145" baseProfile="full">
  <rect width="100%" height="100%" fill="#fff"/>
  <path fill="none" stroke="#000" d="M10 10h125v125H10z"/>
  <g font-family="Lucida Console, Monaco, monospace" font-size="11">
    <text transform="translate(17 25)">0</text>
    <text x="15" transform="translate(17 25)">0</text>
    <text x="30" transform="translate(17 25)">1</text>
    <text x="45" transform="translate(17 25)">0</text>
    <text x="60" transform="translate(17 25)">0</text>
    <text x="75" transform="translate(17 25)">0</text>
    <text x="90" transform="translate(17 25)">0</text>
    <text x="105" transform="translate(17 25)">0</text>
    <text y="15" transform="translate(17 25)">0</text>
    <text x="15" y="15" transform="translate(17 25)">1</text>
    <text x="30" y="15" transform="translate(17 25)">0</text>
    <text x="45" y="15" transform="translate(17 25)">1</text>
    <text x="60" y="15" transform="translate(17 25)">0</text>
    <text x="75" y="15" transform="translate(17 25)">0</text>
    <text x="90" y="15" transform="translate(17 25)">0</text>
    <text x="105" y="15" transform="translate(17 25)">0</text>
    <text y="30" transform="translate(17 25)">1</text>
    <text x="15" y="30" transform="translate(17 25)">0</text>
    <text x="30" y="30" transform="translate(17 25)">0</text>
    <text x="45" y="30" transform="translate(17 25)">0</text>
    <text x="60" y="30" transform="translate(17 25)">1</text>
    <text x="75" y="30" transform="translate(17 25)">0</text>
    <text x="90" y="30" transform="translate(17 25)">0</text>
    <text x="105" y="30" transform="translate(17 25)">0</text>
    <text y="45" transform="translate(17 25)">1</text>
    <text x="15" y="45" transform="translate(17 25)">0</text>
    <text x="30" y="45" transform="translate(17 25)">0</text>
    <text x="45" y="45" transform="translate(17 25)">0</text>
    <text x="60" y="45" transform="translate(17 25)">1</text>
    <text x="75" y="45" transform="translate(17 25)">0</text>
    <text x="90" y="45" transform="translate(17 25)">0</text>
    <text x="105" y="45" transform="translate(17 25)">0</text>
    <text y="60" transform="translate(17 25)">1</text>
    <text x="15" y="60" transform="translate(17 25)">1</text>
    <text x="30" y="60" transform="translate(17 25)">1</text>
    <text x="45" y="60" transform="translate(17 25)">1</text>
    <text x="60" y="60" transform="translate(17 25)">1</text>
    <text x="75" y="60" transform="translate(17 25)">0</text>
    <text x="90" y="60" transform="translate(17 25)">0</text>
    <text x="105" y="60" transform="translate(17 25)">0</text>
    <text y="75" transform="translate(17 25)">1</text>
    <text x="15" y="75" transform="translate(17 25)">0</text>
    <text x="30" y="75" transform="translate(17 25)">0</text>
    <text x="45" y="75" transform="translate(17 25)">0</text>
    <text x="60" y="75" transform="translate(17 25)">1</text>
    <text x="75" y="75" transform="translate(17 25)">0</text>
    <text x="90" y="75" transform="translate(17 25)">0</text>
    <text x="105" y="75" transform="translate(17 25)">0</text>
    <text y="90" transform="translate(17 25)">1</text>
    <text x="15" y="90" transform="translate(17 25)">0</text>
    <text x="30" y="90" transform="translate(17 25)">0</text>
    <text x="45" y="90" transform="translate(17 25)">0</text>
    <text x="60" y="90" transform="translate(17 25)">1</text>
    <text x="75" y="90" transform="translate(17 25)">0</text>
    <text x="90" y="90" transform="translate(17 25)">0</text>
    <text x="105" y="90" transform="translate(17 25)">0</text>
    <text y="105" transform="translate(17 25)">0</text>
    <text x="15" y="105" transform="translate(17 25)">0</text>
    <text x="30" y="105" transform="translate(17 25)">0</text>
    <text x="45" y="105" transform="translate(17 25)">0</text>
    <text x="60" y="105" transform="translate(17 25)">0</text>
    <text x="75" y="105" transform="translate(17 25)">0</text>
    <text x="90" y="105" transform="translate(17 25)">0</text>
    <text x="105" y="105" transform="translate(17 25)">0</text>
    <text x="125" transform="translate(17 25)">Byte 0</text>
    <text x="125" y="15" transform="translate(17 25)">Byte 1</text>
    <text x="125" y="30" transform="translate(17 25)">Byte 2</text>
    <text x="125" y="45" transform="translate(17 25)">Byte 3</text>
    <text x="125" y="60" transform="translate(17 25)">Byte 4</text>
    <text x="125" y="75" transform="translate(17 25)">Byte 5</text>
    <text x="125" y="90" transform="translate(17 25)">Byte 6</text>
    <text x="125" y="105" transform="translate(17 25)">Byte 7</text>
  </g>
</svg>
