<svg xmlns="http://www.w3.org/2000/svg" width="470" height="140" baseProfile="full">
  <rect width="100%" height="100%" fill="#fff"/>
  <g font-family="Lucida Console, Monaco, monospace" font-size="11" text-anchor="middle">
    <text x="25" y="10" transform="translate(10 10)">7</text>
    <text x="75" y="10" transform="translate(10 10)">6</text>
    <text x="125" y="10" transform="translate(10 10)">5</text>
    <text x="175" y="10" transform="translate(10 10)">4</text>
    <text x="225" y="10" transform="translate(10 10)">3</text>
    <text x="275" y="10" transform="translate(10 10)">2</text>
    <text x="325" y="10" transform="translate(10 10)">1</text>
    <text x="375" y="10" transform="translate(10 10)">0</text>
    <text x="200" y="37" transform="translate(10 10)">Vertical Position</text>
    <text x="430" y="37" transform="translate(10 10)">Byte 0</text>
    <text x="200" y="62" transform="translate(10 10)">Horizontal Position</text>
    <text x="430" y="62" transform="translate(10 10)">Byte 1</text>
    <text x="200" y="87" transform="translate(10 10)">Pattern Number</text>
    <text x="430" y="87" transform="translate(10 10)">Byte 2</text>
    <text x="25" y="112" transform="translate(10 10)">EC</text>
    <text x="75" y="112" transform="translate(10 10)">0</text>
    <text x="125" y="112" transform="translate(10 10)">0</text>
    <text x="175" y="112" transform="translate(10 10)">0</text>
    <text x="300" y="112" transform="translate(10 10)">Colour Code</text>
    <text x="430" y="112" transform="translate(10 10)">Byte 3</text>
  </g>
  <path fill="none" stroke="#000" d="M10 30h400v100H10zm0 25h400m0 25H10m0 25h400m-350 0v25m50 0v-25m50 0v25m50 0v-25"/>
</svg>
