<svg xmlns="http://www.w3.org/2000/svg" xmlns:xlink="http://www.w3.org/1999/xlink" width="480" height="430" baseProfile="full">
  <rect width="100%" height="100%" fill="#fff"/>
  <defs>
    <g id="a">
      <text>0</text>
      <text x="10">1</text>
      <text x="20">2</text>
      <text x="30">3</text>
      <text x="40">4</text>
      <text x="50">5</text>
      <text x="60">6</text>
      <text x="70">7</text>
      <text x="80">8</text>
      <text x="90">9</text>
    </g>
  </defs>
  <g font-family="Lucida Console, Monaco, monospace" font-size="11">
    <g text-anchor="middle" transform="translate(10 30)">
      <use xlink:href="#a" x="45"/>
      <use xlink:href="#a" x="145"/>
      <use xlink:href="#a" x="245"/>
      <use xlink:href="#a" x="345"/>
      <use xlink:href="#a" x="45" y="375"/>
      <use xlink:href="#a" x="145" y="375"/>
      <use xlink:href="#a" x="245" y="375"/>
      <use xlink:href="#a" x="345" y="375"/>
      <text x="45" y="-15">0</text>
      <text x="145" y="-15">1</text>
      <text x="245" y="-15">2</text>
      <text x="345" y="-15">3</text>
      <text x="45" y="390">0</text>
      <text x="145" y="390">1</text>
      <text x="245" y="390">2</text>
      <text x="345" y="390">3</text>
    </g>
    <g text-anchor="end">
      <text transform="translate(45 45)">0000H</text>
      <text y="15" transform="translate(45 45)">0028H</text>
      <text y="30" transform="translate(45 45)">0050H</text>
      <text y="45" transform="translate(45 45)">0078H</text>
      <text y="60" transform="translate(45 45)">00A0H</text>
      <text y="75" transform="translate(45 45)">00C8H</text>
      <text y="90" transform="translate(45 45)">00F0H</text>
      <text y="105" transform="translate(45 45)">0118H</text>
      <text y="120" transform="translate(45 45)">0140H</text>
      <text y="135" transform="translate(45 45)">0168H</text>
      <text y="150" transform="translate(45 45)">0190H</text>
      <text y="165" transform="translate(45 45)">01B8H</text>
      <text y="180" transform="translate(45 45)">01E0H</text>
      <text y="195" transform="translate(45 45)">0208H</text>
      <text y="210" transform="translate(45 45)">0230H</text>
      <text y="225" transform="translate(45 45)">0258H</text>
      <text y="240" transform="translate(45 45)">0280H</text>
      <text y="255" transform="translate(45 45)">02A8H</text>
      <text y="270" transform="translate(45 45)">02D0H</text>
      <text y="285" transform="translate(45 45)">02F8H</text>
      <text y="300" transform="translate(45 45)">0320H</text>
      <text y="315" transform="translate(45 45)">0348H</text>
      <text y="330" transform="translate(45 45)">0370H</text>
      <text y="345" transform="translate(45 45)">0398H</text>
      <text transform="translate(468 45)">0</text>
      <text y="15" transform="translate(468 45)">1</text>
      <text y="30" transform="translate(468 45)">2</text>
      <text y="45" transform="translate(468 45)">3</text>
      <text y="60" transform="translate(468 45)">4</text>
      <text y="75" transform="translate(468 45)">5</text>
      <text y="90" transform="translate(468 45)">6</text>
      <text y="105" transform="translate(468 45)">7</text>
      <text y="120" transform="translate(468 45)">8</text>
      <text y="135" transform="translate(468 45)">9</text>
      <text y="150" transform="translate(468 45)">10</text>
      <text y="165" transform="translate(468 45)">11</text>
      <text y="180" transform="translate(468 45)">12</text>
      <text y="195" transform="translate(468 45)">13</text>
      <text y="210" transform="translate(468 45)">14</text>
      <text y="225" transform="translate(468 45)">15</text>
      <text y="240" transform="translate(468 45)">16</text>
      <text y="255" transform="translate(468 45)">17</text>
      <text y="270" transform="translate(468 45)">18</text>
      <text y="285" transform="translate(468 45)">19</text>
      <text y="300" transform="translate(468 45)">20</text>
      <text y="315" transform="translate(468 45)">21</text>
      <text y="330" transform="translate(468 45)">22</text>
      <text y="345" transform="translate(468 45)">23</text>
      <path fill="none" stroke="#000" d="M50 33h400v360H50zm10 0v360m10 0V33m10 0v360m10 0V33m10 0v360m10 0V33m10 0v360m10 0V33m10 0v360m10 0V33m10 0v360m10 0V33m10 0v360m10 0V33m10 0v360m10 0V33m10 0v360m10 0V33m10 0v360m10 0V33m10 0v360m10 0V33m10 0v360m10 0V33m10 0v360m10 0V33m10 0v360m10 0V33m10 0v360m10 0V33m10 0v360m10 0V33m10 0v360m10 0V33m10 0v360m10 0V33m10 0v360m10 0V33m10 0v360M50 48h400m0 15H50m0 15h400m0 15H50m0 15h400m0 15H50m0 15h400m0 15H50m0 15h400m0 15H50m0 15h400m0 15H50m0 15h400m0 15H50m0 15h400m0 15H50m0 15h400m0 15H50m0 15h400m0 15H50m0 15h400m0 15H50m0 15h400"/>
    </g>
  </g>
</svg>
