<?xml version="1.0" encoding="utf-8"?>
<svg width="470px" height="140px"
version="1.1"
baseProfile="full"
xmlns="http://www.w3.org/2000/svg"
xmlns:xlink="http://www.w3.org/1999/xlink"
xmlns:ev="http://www.w3.org/2001/xml-events">
<g transform="translate(10,10)">
    <g font-family="Lucida Console, Monaco, monospace" font-size="11" fill="black" stroke="none" text-anchor="middle">
        <text x="25" y="10" >7</text>
        <text x="75" y="10" >6</text>
        <text x="125" y="10" >5</text>
        <text x="175" y="10" >4</text>
        <text x="225" y="10" >3</text>
        <text x="275" y="10" >2</text>
        <text x="325" y="10" >1</text>
        <text x="375" y="10" >0</text>
        <text x="200" y="37" >Vertical Position</text>
        <text x="430" y="37" >Byte 0</text>
        <text x="200" y="62" >Horizontal Position</text>
        <text x="430" y="62" >Byte 1</text>
        <text x="200" y="87" >Pattern Number</text>
        <text x="430" y="87" >Byte 2</text>
        <text x="25" y="112" >EC</text>
        <text x="75" y="112" >0</text>
        <text x="125" y="112" >0</text>
        <text x="175" y="112" >0</text>
        <text x="300" y="112" >Colour Code</text>
        <text x="430" y="112" >Byte 3</text>
    </g>
    <g fill="none" stroke="black">
        <rect x="0" y="20" width="400px" height="100px"/>
        <path d="M0,45 h400 m0,25 h-400 m0,25 h400"/>
        <path d="M50,95 v25 m50,0 v-25 m50,0 v25 m50,0 v-25"/>
    </g>
</g>
</svg>