<svg xmlns="http://www.w3.org/2000/svg" xmlns:xlink="http://www.w3.org/1999/xlink" width="400" height="430" baseProfile="full">
  <rect width="100%" height="100%" fill="#fff"/>
  <defs>
    <g id="a">
      <text>0</text>
      <text x="10">1</text>
      <text x="20">2</text>
      <text x="30">3</text>
      <text x="40">4</text>
      <text x="50">5</text>
      <text x="60">6</text>
      <text x="70">7</text>
      <text x="80">8</text>
      <text x="90">9</text>
    </g>
  </defs>
  <g font-family="Lucida Console, Monaco, monospace" font-size="11">
    <g text-anchor="middle" transform="translate(10 30)">
      <use xlink:href="#a" x="45"/>
      <use xlink:href="#a" x="145"/>
      <use xlink:href="#a" x="245"/>
      <use xlink:href="#a" x="45" y="375"/>
      <use xlink:href="#a" x="145" y="375"/>
      <use xlink:href="#a" x="245" y="375"/>
      <text x="345">0</text>
      <text x="355">1</text>
      <text x="345" y="375">0</text>
      <text x="355" y="375">1</text>
      <text x="45" y="-15">0</text>
      <text x="145" y="-15">1</text>
      <text x="245" y="-15">2</text>
      <text x="345" y="-15">3</text>
      <text x="45" y="390">0</text>
      <text x="145" y="390">1</text>
      <text x="245" y="390">2</text>
      <text x="345" y="390">3</text>
    </g>
    <g text-anchor="end">
      <text transform="translate(45 45)">0000H</text>
      <text y="15" transform="translate(45 45)">0002H</text>
      <text y="30" transform="translate(45 45)">0004H</text>
      <text y="45" transform="translate(45 45)">0006H</text>
      <text y="60" transform="translate(45 45)">0100H</text>
      <text y="75" transform="translate(45 45)">0102H</text>
      <text y="90" transform="translate(45 45)">0104H</text>
      <text y="105" transform="translate(45 45)">0106H</text>
      <text y="120" transform="translate(45 45)">0200H</text>
      <text y="135" transform="translate(45 45)">0202H</text>
      <text y="150" transform="translate(45 45)">0204H</text>
      <text y="165" transform="translate(45 45)">0206H</text>
      <text y="180" transform="translate(45 45)">0300H</text>
      <text y="195" transform="translate(45 45)">0302H</text>
      <text y="210" transform="translate(45 45)">0304H</text>
      <text y="225" transform="translate(45 45)">0306H</text>
      <text y="240" transform="translate(45 45)">0400H</text>
      <text y="255" transform="translate(45 45)">0402H</text>
      <text y="270" transform="translate(45 45)">0404H</text>
      <text y="285" transform="translate(45 45)">0406H</text>
      <text y="300" transform="translate(45 45)">0500H</text>
      <text y="315" transform="translate(45 45)">0502H</text>
      <text y="330" transform="translate(45 45)">0504H</text>
      <text y="345" transform="translate(45 45)">0506H</text>
      <text transform="translate(388 45)">0</text>
      <text y="15" transform="translate(388 45)">1</text>
      <text y="30" transform="translate(388 45)">2</text>
      <text y="45" transform="translate(388 45)">3</text>
      <text y="60" transform="translate(388 45)">4</text>
      <text y="75" transform="translate(388 45)">5</text>
      <text y="90" transform="translate(388 45)">6</text>
      <text y="105" transform="translate(388 45)">7</text>
      <text y="120" transform="translate(388 45)">8</text>
      <text y="135" transform="translate(388 45)">9</text>
      <text y="150" transform="translate(388 45)">10</text>
      <text y="165" transform="translate(388 45)">11</text>
      <text y="180" transform="translate(388 45)">12</text>
      <text y="195" transform="translate(388 45)">13</text>
      <text y="210" transform="translate(388 45)">14</text>
      <text y="225" transform="translate(388 45)">15</text>
      <text y="240" transform="translate(388 45)">16</text>
      <text y="255" transform="translate(388 45)">17</text>
      <text y="270" transform="translate(388 45)">18</text>
      <text y="285" transform="translate(388 45)">19</text>
      <text y="300" transform="translate(388 45)">20</text>
      <text y="315" transform="translate(388 45)">21</text>
      <text y="330" transform="translate(388 45)">22</text>
      <text y="345" transform="translate(388 45)">23</text>
      <path fill="none" stroke="#000" d="M50 33h320v360H50zm10 0v360m10 0V33m10 0v360m10 0V33m10 0v360m10 0V33m10 0v360m10 0V33m10 0v360m10 0V33m10 0v360m10 0V33m10 0v360m10 0V33m10 0v360m10 0V33m10 0v360m10 0V33m10 0v360m10 0V33m10 0v360m10 0V33m10 0v360m10 0V33m10 0v360m10 0V33m10 0v360m10 0V33m10 0v360m10 0V33m10 0v360M50 48h320m0 15H50m0 15h320m0 15H50m0 15h320m0 15H50m0 15h320m0 15H50m0 15h320m0 15H50m0 15h320m0 15H50m0 15h320m0 15H50m0 15h320m0 15H50m0 15h320m0 15H50m0 15h320m0 15H50m0 15h320m0 15H50m0 15h320"/>
    </g>
  </g>
</svg>
