<?xml version="1.0" encoding="utf-8"?>
<svg width="190px" height="145px"
version="1.1"
baseProfile="full"
xmlns="http://www.w3.org/2000/svg"
xmlns:xlink="http://www.w3.org/1999/xlink"
xmlns:ev="http://www.w3.org/2001/xml-events">
<g transform="translate(10,10)">
    <g fill="none" stroke="black">
        <rect x="0" y="0" width="125" height="125"/>
    </g>
    <g transform="translate(7,15)">
        <g font-family="Lucida Console, Monaco, monospace" font-size="11" fill="black" stroke="none" text-anchor="start">
            <text x="0" y="0" >0</text>
            <text x="15" y="0" >0</text>
            <text x="30" y="0" >1</text>
            <text x="45" y="0" >0</text>
            <text x="60" y="0" >0</text>
            <text x="75" y="0" >0</text>
            <text x="90" y="0" >0</text>
            <text x="105" y="0" >0</text>

            <text x="0" y="15" >0</text>
            <text x="15" y="15" >1</text>
            <text x="30" y="15" >0</text>
            <text x="45" y="15" >1</text>
            <text x="60" y="15" >0</text>
            <text x="75" y="15" >0</text>
            <text x="90" y="15" >0</text>
            <text x="105" y="15" >0</text>

            <text x="0" y="30" >1</text>
            <text x="15" y="30" >0</text>
            <text x="30" y="30" >0</text>
            <text x="45" y="30" >0</text>
            <text x="60" y="30" >1</text>
            <text x="75" y="30" >0</text>
            <text x="90" y="30" >0</text>
            <text x="105" y="30" >0</text>

            <text x="0" y="45" >1</text>
            <text x="15" y="45" >0</text>
            <text x="30" y="45" >0</text>
            <text x="45" y="45" >0</text>
            <text x="60" y="45" >1</text>
            <text x="75" y="45" >0</text>
            <text x="90" y="45" >0</text>
            <text x="105" y="45" >0</text>

            <text x="0" y="60" >1</text>
            <text x="15" y="60" >1</text>
            <text x="30" y="60" >1</text>
            <text x="45" y="60" >1</text>
            <text x="60" y="60" >1</text>
            <text x="75" y="60" >0</text>
            <text x="90" y="60" >0</text>
            <text x="105" y="60" >0</text>

            <text x="0" y="75" >1</text>
            <text x="15" y="75" >0</text>
            <text x="30" y="75" >0</text>
            <text x="45" y="75" >0</text>
            <text x="60" y="75" >1</text>
            <text x="75" y="75" >0</text>
            <text x="90" y="75" >0</text>
            <text x="105" y="75" >0</text>

            <text x="0" y="90" >1</text>
            <text x="15" y="90" >0</text>
            <text x="30" y="90" >0</text>
            <text x="45" y="90" >0</text>
            <text x="60" y="90" >1</text>
            <text x="75" y="90" >0</text>
            <text x="90" y="90" >0</text>
            <text x="105" y="90" >0</text>

            <text x="0" y="105" >0</text>
            <text x="15" y="105" >0</text>
            <text x="30" y="105" >0</text>
            <text x="45" y="105" >0</text>
            <text x="60" y="105" >0</text>
            <text x="75" y="105" >0</text>
            <text x="90" y="105" >0</text>
            <text x="105" y="105" >0</text>
            
            <text x="125" y="0" >Byte 0</text>
            <text x="125" y="15" >Byte 1</text>
            <text x="125" y="30" >Byte 2</text>
            <text x="125" y="45" >Byte 3</text>
            <text x="125" y="60" >Byte 4</text>
            <text x="125" y="75" >Byte 5</text>
            <text x="125" y="90" >Byte 6</text>
            <text x="125" y="105" >Byte 7</text>
        </g>
    </g>
</g>
</svg>