<svg xmlns="http://www.w3.org/2000/svg" width="420" height="90" baseProfile="full">
  <rect width="100%" height="100%" fill="#fff"/>
  <g font-family="Lucida Console, Monaco, monospace" font-size="11" text-anchor="middle">
    <text x="25" y="10" transform="translate(10 10)">7</text>
    <text x="75" y="10" transform="translate(10 10)">6</text>
    <text x="125" y="10" transform="translate(10 10)">5</text>
    <text x="175" y="10" transform="translate(10 10)">4</text>
    <text x="225" y="10" transform="translate(10 10)">3</text>
    <text x="275" y="10" transform="translate(10 10)">2</text>
    <text x="325" y="10" transform="translate(10 10)">1</text>
    <text x="375" y="10" transform="translate(10 10)">0</text>
    <text x="25" y="40" transform="translate(10 10)">Cas</text>
    <text x="25" y="60" transform="translate(10 10)">Input</text>
    <text x="75" y="40" transform="translate(10 10)">Kbd</text>
    <text x="75" y="60" transform="translate(10 10)">Mode</text>
    <text x="125" y="40" transform="translate(10 10)">Joy</text>
    <text x="125" y="60" transform="translate(10 10)">Trg.B</text>
    <text x="175" y="40" transform="translate(10 10)">Joy</text>
    <text x="175" y="60" transform="translate(10 10)">Trg.A</text>
    <text x="225" y="40" transform="translate(10 10)">Joy</text>
    <text x="225" y="60" transform="translate(10 10)">Right</text>
    <text x="275" y="40" transform="translate(10 10)">Joy</text>
    <text x="275" y="60" transform="translate(10 10)">Left</text>
    <text x="325" y="40" transform="translate(10 10)">Joy</text>
    <text x="325" y="60" transform="translate(10 10)">Back</text>
    <text x="375" y="40" transform="translate(10 10)">Joy</text>
    <text x="375" y="60" transform="translate(10 10)">Fwd</text>
  </g>
  <path fill="none" stroke="#000" d="M10 30h400v50H10zm50 0v50m50 0V30m50 0v50m50 0V30m50 0v50m50 0V30m50 0v50"/>
</svg>
