<svg xmlns="http://www.w3.org/2000/svg" width="470" height="535" baseProfile="full">
  <rect width="100%" height="100%" fill="#fff"/>
  <g font-family="Lucida Console, Monaco, monospace" font-size="11" text-anchor="middle">
    <text transform="translate(35 20)">3</text>
    <text x="50" transform="translate(35 20)">2</text>
    <text x="100" transform="translate(35 20)">1</text>
    <text x="150" transform="translate(35 20)">0</text>
    <text transform="translate(35 55)">0</text>
    <text x="50" transform="translate(35 55)">0</text>
    <text x="100" transform="translate(35 55)">x</text>
    <text x="150" transform="translate(35 55)">x</text>
    <text transform="translate(35 105)">0</text>
    <text x="50" transform="translate(35 105)">1</text>
    <text x="100" transform="translate(35 105)">x</text>
    <text x="150" transform="translate(35 105)">x</text>
    <text transform="translate(35 155)">1</text>
    <text x="50" transform="translate(35 155)">0</text>
    <text x="100" transform="translate(35 155)">0</text>
    <text x="150" transform="translate(35 155)">0</text>
    <text transform="translate(35 205)">1</text>
    <text x="50" transform="translate(35 205)">0</text>
    <text x="100" transform="translate(35 205)">0</text>
    <text x="150" transform="translate(35 205)">1</text>
    <text transform="translate(35 255)">1</text>
    <text x="50" transform="translate(35 255)">0</text>
    <text x="100" transform="translate(35 255)">1</text>
    <text x="150" transform="translate(35 255)">0</text>
    <text transform="translate(35 305)">1</text>
    <text x="50" transform="translate(35 305)">0</text>
    <text x="100" transform="translate(35 305)">1</text>
    <text x="150" transform="translate(35 305)">1</text>
    <text transform="translate(35 355)">1</text>
    <text x="50" transform="translate(35 355)">1</text>
    <text x="100" transform="translate(35 355)">0</text>
    <text x="150" transform="translate(35 355)">0</text>
    <text transform="translate(35 405)">1</text>
    <text x="50" transform="translate(35 405)">1</text>
    <text x="100" transform="translate(35 405)">0</text>
    <text x="150" transform="translate(35 405)">1</text>
    <text transform="translate(35 455)">1</text>
    <text x="50" transform="translate(35 455)">1</text>
    <text x="100" transform="translate(35 455)">1</text>
    <text x="150" transform="translate(35 455)">0</text>
    <text transform="translate(35 505)">1</text>
    <text x="50" transform="translate(35 505)">1</text>
    <text x="100" transform="translate(35 505)">1</text>
    <text x="150" transform="translate(35 505)">1</text>
  </g>
  <path fill="none" stroke="#000" d="M10 25h200v500H10zm50 0v500m50 0V25m50 0v500M10 75h200m0 50H10m0 50h200m0 50H10m0 50h200m0 50H10m0 50h200m0 50H10m0 50h200m50-415V40l20 20h180m-200 50 20-20v20h180m-200 50v-20l20 20v-20l20 20v-20l20 20v-20l20 20v-20l20 20v-20l20 20v-20l20 20v-20l20 20v-20l20 20v-20l20 20m-200 50v-20l20 20h180m-200 30 20 20 20-20 20 20 20-20 20 20 20-20 20 20 20-20 20 20 20-20m-200 50 20 20v-20h180m-200 70 20-20v20l20-20v20l20-20v20l20-20v20l20-20v20l20-20v20l20-20v20l20-20v20l20-20v20l20-20v20m-200 50 20-20h180m-200 70 20-20 20 20 20-20 20 20 20-20 20 20 20-20 20 20 20-20 20 20m-200 50 20-20v20h180"/>
  <text x="350" y="10" font-family="Lucida Console, Monaco, monospace" font-size="11" text-anchor="middle" transform="translate(10 10)">Modulation Envelope</text>
</svg>
