<svg xmlns="http://www.w3.org/2000/svg" width="440" height="140" baseProfile="full">
  <rect width="100%" height="100%" fill="#fff"/>
  <g font-family="Lucida Console, Monaco, monospace" font-size="11" text-anchor="middle">
    <text x="25" y="10" transform="translate(10 10)">7</text>
    <text x="75" y="10" transform="translate(10 10)">6</text>
    <text x="125" y="10" transform="translate(10 10)">5</text>
    <text x="175" y="10" transform="translate(10 10)">4</text>
    <text x="225" y="10" transform="translate(10 10)">3</text>
    <text x="275" y="10" transform="translate(10 10)">2</text>
    <text x="325" y="10" transform="translate(10 10)">1</text>
    <text x="375" y="10" transform="translate(10 10)">0</text>
    <text x="200" y="40" transform="translate(10 10)">Channel A Frequency</text>
    <text x="200" y="60" transform="translate(10 10)">(LSB)</text>
    <text x="25" y="100" transform="translate(10 10)">x</text>
    <text x="75" y="100" transform="translate(10 10)">x</text>
    <text x="125" y="100" transform="translate(10 10)">x</text>
    <text x="175" y="100" transform="translate(10 10)">x</text>
    <text x="300" y="90" transform="translate(10 10)">Channel A Frequency</text>
    <text x="300" y="110" transform="translate(10 10)">(MSB)</text>
    <text x="415" y="50" transform="translate(10 10)">R0</text>
    <text x="415" y="100" transform="translate(10 10)">R1</text>
  </g>
  <path fill="none" stroke="#000" d="M10 30h400v100H10zm0 50h400M60 80v50m50 0V80m50 0v50m50 0V80"/>
</svg>
