<svg xmlns="http://www.w3.org/2000/svg" width="160" height="160" baseProfile="full">
  <rect width="100%" height="100%" fill="#fff"/>
  <g font-family="Lucida Console, Monaco, monospace" font-size="11" text-anchor="middle">
    <text x="70" y="74" transform="translate(10 10)">0</text>
    <text x="10" y="74" transform="translate(10 10)">7</text>
    <text x="130" y="74" transform="translate(10 10)">3</text>
    <text x="70" y="13" transform="translate(10 10)">1</text>
    <text x="70" y="133" transform="translate(10 10)">5</text>
    <text x="27" y="31" transform="translate(10 10)">8</text>
    <text x="113" y="116" transform="translate(10 10)">4</text>
    <text x="27" y="116" transform="translate(10 10)">6</text>
    <text x="113" y="31" transform="translate(10 10)">2</text>
  </g>
  <path fill="none" stroke="#000" d="M80 30v40m0 20v40M30 80h40m20 0h40M30 80h40m20 0h40m-43-7 30-30M87 87l30 30M73 87l-30 30m30-44L43 43"/>
</svg>
