<svg xmlns="http://www.w3.org/2000/svg" width="420" height="90" baseProfile="full">
  <rect width="100%" height="100%" fill="#fff"/>
  <g font-family="Lucida Console, Monaco, monospace" font-size="11" text-anchor="middle">
    <text x="25" y="10" transform="translate(10 10)">7</text>
    <text x="75" y="10" transform="translate(10 10)">6</text>
    <text x="125" y="10" transform="translate(10 10)">5</text>
    <text x="175" y="10" transform="translate(10 10)">4</text>
    <text x="225" y="10" transform="translate(10 10)">3</text>
    <text x="275" y="10" transform="translate(10 10)">2</text>
    <text x="325" y="10" transform="translate(10 10)">1</text>
    <text x="375" y="10" transform="translate(10 10)">0</text>
    <text x="25" y="50" transform="translate(10 10)">Flag</text>
    <text x="75" y="50" transform="translate(10 10)">0</text>
    <text x="125" y="50" transform="translate(10 10)">0</text>
    <text x="175" y="50" transform="translate(10 10)">0</text>
    <text x="250" y="40" transform="translate(10 10)">Secondary</text>
    <text x="250" y="60" transform="translate(10 10)">Slot#</text>
    <text x="350" y="40" transform="translate(10 10)">Primary</text>
    <text x="350" y="60" transform="translate(10 10)">Slot#</text>
  </g>
  <path fill="none" stroke="#000" d="M10 30h400v50H10zm50 0v50m50 0V30m50 0v50m50 0V30m100 0v50"/>
</svg>
