<svg xmlns="http://www.w3.org/2000/svg" width="420" height="335" baseProfile="full">
  <rect width="100%" height="100%" fill="#fff"/>
  <g font-family="Lucida Console, Monaco, monospace" font-size="11" text-anchor="middle">
    <text x="25" y="10" transform="translate(10 10)">7</text>
    <text x="75" y="10" transform="translate(10 10)">6</text>
    <text x="125" y="10" transform="translate(10 10)">5</text>
    <text x="175" y="10" transform="translate(10 10)">4</text>
    <text x="225" y="10" transform="translate(10 10)">3</text>
    <text x="275" y="10" transform="translate(10 10)">2</text>
    <text x="325" y="10" transform="translate(10 10)">1</text>
    <text x="375" y="10" transform="translate(10 10)">0</text>
    <text x="25" y="37" transform="translate(10 10)">0</text>
    <text x="75" y="37" transform="translate(10 10)">0</text>
    <text x="125" y="37" transform="translate(10 10)">x</text>
    <text x="175" y="37" transform="translate(10 10)">x</text>
    <text x="300" y="37" transform="translate(10 10)">Frequency (MSB)</text>
    <text x="200" y="62" transform="translate(10 10)">Frequency (LSB)</text>
    <text x="200" y="87" transform="translate(10 10)">Frequency Block</text>
  </g>
  <path fill="none" stroke="#000" d="M10 30h400v50H10zm50 0v25m50 0V30m50 0v25m50 0V30M10 55h400"/>
  <g font-family="Lucida Console, Monaco, monospace" font-size="11" text-anchor="middle">
    <text x="25" y="10" transform="translate(10 122)">7</text>
    <text x="75" y="10" transform="translate(10 122)">6</text>
    <text x="125" y="10" transform="translate(10 122)">5</text>
    <text x="175" y="10" transform="translate(10 122)">4</text>
    <text x="225" y="10" transform="translate(10 122)">3</text>
    <text x="275" y="10" transform="translate(10 122)">2</text>
    <text x="325" y="10" transform="translate(10 122)">1</text>
    <text x="375" y="10" transform="translate(10 122)">0</text>
    <text x="25" y="37" transform="translate(10 122)">x</text>
    <text x="75" y="37" transform="translate(10 122)">1</text>
    <text x="125" y="37" transform="translate(10 122)">x</text>
    <text x="175" y="37" transform="translate(10 122)">x</text>
    <text x="220" y="37" transform="translate(10 122)">x</text>
    <text x="275" y="37" transform="translate(10 122)">x</text>
    <text x="325" y="37" transform="translate(10 122)">x</text>
    <text x="375" y="37" transform="translate(10 122)">x</text>
    <text x="200" y="62" transform="translate(10 122)">Envelope Frequency (MSB)</text>
    <text x="200" y="87" transform="translate(10 122)">Envelope Frequency (LSB)</text>
    <text x="200" y="112" transform="translate(10 122)">Envelope Block</text>
  </g>
  <path fill="none" stroke="#000" d="M10 142h400v75H10zm50 0v25m50 0v-25m50 0v25m50 0v-25m50 0v25m50 0v-25m50 0v25m-350 0h400m0 25H10"/>
  <g font-family="Lucida Console, Monaco, monospace" font-size="11" text-anchor="middle">
    <text x="25" y="10" transform="translate(10 259)">7</text>
    <text x="75" y="10" transform="translate(10 259)">6</text>
    <text x="125" y="10" transform="translate(10 259)">5</text>
    <text x="175" y="10" transform="translate(10 259)">4</text>
    <text x="225" y="10" transform="translate(10 259)">3</text>
    <text x="275" y="10" transform="translate(10 259)">2</text>
    <text x="325" y="10" transform="translate(10 259)">1</text>
    <text x="375" y="10" transform="translate(10 259)">0</text>
    <text x="25" y="37" transform="translate(10 259)">1</text>
    <text x="75" y="37" transform="translate(10 259)">x</text>
    <text x="125" y="37" transform="translate(10 259)">x</text>
    <text x="175" y="37" transform="translate(10 259)">Mode</text>
    <text x="300" y="37" transform="translate(10 259)">Amplitude/Shape</text>
    <text x="200" y="62" transform="translate(10 259)">Amplitude Block</text>
  </g>
  <path fill="none" stroke="#000" d="M10 279h400v25H10zm50 0v25m50 0v-25m50 0v25m50 0v-25"/>
</svg>
