<svg xmlns="http://www.w3.org/2000/svg" width="480" height="100" baseProfile="full">
  <rect width="100%" height="100%" fill="#fff"/>
  <path fill="none" stroke="#000" d="M20 60h20V20h20v40m0 0h10V20h10v40h10V20h10v40m0 0h10V20h10v40h10V20h10v40m0 0h20V20h20v40m0 0h20V20h20v40m0 0h20V20h20v40m0 0h20V20h20v40m0 0h10V20h10v40h10V20h10v40m0 0h20V20h20v40m0 0h10V20h10v40h10V20h10v40m0 0h10V20h10v40h10V20h10v40M20 65v10m40-10v10m40-10v5m40-5v5m40-5v5m40-5v5m40-5v5m40-5v5m40-5v5m40-5v10m40-10v5m40-5v10"/>
  <g font-family="Lucida Console, Monaco, monospace" font-size="10" text-anchor="middle">
    <text x="20" y="25" transform="translate(20 60)">Start</text>
    <text x="60" y="25" transform="translate(20 60)">0</text>
    <text x="100" y="25" transform="translate(20 60)">1</text>
    <text x="140" y="25" transform="translate(20 60)">2</text>
    <text x="180" y="25" transform="translate(20 60)">3</text>
    <text x="220" y="25" transform="translate(20 60)">4</text>
    <text x="260" y="25" transform="translate(20 60)">5</text>
    <text x="300" y="25" transform="translate(20 60)">6</text>
    <text x="340" y="25" transform="translate(20 60)">7</text>
    <text x="380" y="25" transform="translate(20 60)">Stop</text>
    <text x="420" y="25" transform="translate(20 60)">Stop</text>
  </g>
</svg>
