<svg xmlns="http://www.w3.org/2000/svg" width="270" height="295">
  <rect width="100%" height="100%" fill="#fff"/>
  <g fill="none" stroke="#000">
    <path d="M10 10h170v275H10z"/>
    <g fill="#000" stroke="none" font-family="Lucida Console, Monaco, monospace" font-size="11">
      <text x="85" y="17" text-anchor="middle" transform="translate(10 10)">Reserved</text>
      <text x="180" y="17" transform="translate(10 10)">Byte 10-15</text>
      <text x="10" y="42" transform="translate(10 10)">BASIC Text Address MSB</text>
      <text x="180" y="42" transform="translate(10 10)">Byte 9</text>
      <text x="10" y="67" transform="translate(10 10)">BASIC Text Address LSB</text>
      <text x="180" y="67" transform="translate(10 10)">Byte 8</text>
      <text x="10" y="92" transform="translate(10 10)">DEVICE Address MSB</text>
      <text x="180" y="92" transform="translate(10 10)">Byte 7</text>
      <text x="10" y="117" transform="translate(10 10)">DEVICE Address LSB</text>
      <text x="180" y="117" transform="translate(10 10)">Byte 6</text>
      <text x="10" y="142" transform="translate(10 10)">STATEMENT Address MSB</text>
      <text x="180" y="142" transform="translate(10 10)">Byte 5</text>
      <text x="10" y="167" transform="translate(10 10)">STATEMENT Address LSB</text>
      <text x="180" y="167" transform="translate(10 10)">Byte 4</text>
      <text x="10" y="192" transform="translate(10 10)">INITIALIZE Address MSB</text>
      <text x="180" y="192" transform="translate(10 10)">Byte 3</text>
      <text x="10" y="217" transform="translate(10 10)">INITIALIZE Address LSB</text>
      <text x="180" y="217" transform="translate(10 10)">Byte 2</text>
      <text x="85" y="242" text-anchor="middle" transform="translate(10 10)">42H (&apos;B&apos;)</text>
      <text x="180" y="242" transform="translate(10 10)">Byte 1</text>
      <text x="85" y="267" text-anchor="middle" transform="translate(10 10)">41H (&apos;A&apos;)</text>
      <text x="180" y="267" transform="translate(10 10)">Byte 0</text>
    </g>
  </g>
</svg>
