<svg xmlns="http://www.w3.org/2000/svg" width="520" height="210">
  <rect width="100%" height="100%" fill="#fff"/>
  <g fill="none" stroke="#000">
    <path d="M10 10h200v125H10z"/>
    <g fill="#000" stroke="none" font-family="Lucida Console, Monaco, monospace" font-size="11" text-anchor="middle">
      <text x="25" y="17" transform="translate(10 10)">(0,4)</text>
      <text x="75" y="17" transform="translate(10 10)">(1,4)</text>
      <text x="125" y="17" transform="translate(10 10)">(2,4)</text>
      <text x="175" y="17" transform="translate(10 10)">(3,4)</text>
      <text x="25" y="42" transform="translate(10 10)">(0,3)</text>
      <text x="75" y="42" transform="translate(10 10)">(1,3)</text>
      <text x="125" y="42" transform="translate(10 10)">(2,3)</text>
      <text x="175" y="42" transform="translate(10 10)">(3,3)</text>
      <text x="25" y="67" transform="translate(10 10)">(0,2)</text>
      <text x="75" y="67" transform="translate(10 10)">(1,2)</text>
      <text x="125" y="67" transform="translate(10 10)">(2,2)</text>
      <text x="175" y="67" transform="translate(10 10)">(3,2)</text>
      <text x="25" y="92" transform="translate(10 10)">(0,1)</text>
      <text x="75" y="92" transform="translate(10 10)">(1,1)</text>
      <text x="125" y="92" transform="translate(10 10)">(2,1)</text>
      <text x="175" y="92" transform="translate(10 10)">(3,1)</text>
      <text x="25" y="117" transform="translate(10 10)">(0,0)</text>
      <text x="75" y="117" transform="translate(10 10)">(1,0)</text>
      <text x="125" y="117" transform="translate(10 10)">(2,0)</text>
      <text x="175" y="117" transform="translate(10 10)">(3,0)</text>
    </g>
  </g>
  <g fill="none" stroke="#000">
    <path d="M10 150h500v50H10zm50 0v50m50-50v50m50-50v50m100-50v50m50-50v50m100-50v50"/>
    <g fill="#000" stroke="none" font-family="Lucida Console, Monaco, monospace" font-size="11" text-anchor="middle">
      <text x="25" y="30" transform="translate(10 150)">02H</text>
      <text x="75" y="30" transform="translate(10 150)">&quot;A&quot;</text>
      <text x="125" y="30" transform="translate(10 150)">&quot;B&quot;</text>
      <text x="200" y="17" transform="translate(10 150)">Offset</text>
      <text x="175" y="42" transform="translate(10 150)">2DH</text>
      <text x="225" y="42" transform="translate(10 150)">00H</text>
      <text x="275" y="17" transform="translate(10 150)">Dim</text>
      <text x="275" y="42" transform="translate(10 150)">02H</text>
      <text x="350" y="17" transform="translate(10 150)">Count</text>
      <text x="325" y="42" transform="translate(10 150)">05H</text>
      <text x="375" y="42" transform="translate(10 150)">00H</text>
      <text x="450" y="17" transform="translate(10 150)">Count</text>
      <text x="425" y="42" transform="translate(10 150)">04H</text>
      <text x="475" y="42" transform="translate(10 150)">00H</text>
    </g>
  </g>
</svg>
